<svg width="614" height="614" viewBox="0 0 614 614" fill="none" xmlns="http://www.w3.org/2000/svg">
<g clip-path="url(#clip0_820_1072)">
<path d="M292.9 516.6C292.7 516.4 289.1 515.9 285 515.6C270.9 514.5 267.3 514.1 264.6 513C263.1 512.5 261.5 512.2 261.1 512.4C260.7 512.7 258.6 512.4 256.4 511.9C254.3 511.3 251.8 510.7 251 510.6C248.1 510.1 234.4 505.8 224.5 502.3C200 493.8 176.1 479.8 153.3 460.8C150.4 458.4 144.9 453.9 141.1 450.7C137.2 447.5 134 444.4 134 443.7C134.1 443 136.4 440.7 139.2 438.5C142.1 436.3 150.6 429 158.2 422.3C165.7 415.5 172.4 410 173 410C173.5 410 174 409.5 174 408.9C174 407.7 178.3 408.8 178.8 410.1C179 410.6 179.7 411 180.3 411C181 411 183.6 412.9 186.2 415.3C188.8 417.6 194.1 421.8 197.9 424.5C201.8 427.3 204.9 429.8 205 430.3C205 430.7 205.5 431 206.1 431C206.6 431 208.8 432.3 210.8 434C219.7 441.1 251.1 453.9 268.4 457.4C285.2 460.9 309.4 461.9 326.5 459.9C331.5 459.3 336.9 458.7 338.5 458.5C340.2 458.3 342.6 457.9 344 457.5C345.4 457.2 347.9 456.7 349.5 456.4C351.2 456.1 353.2 455.6 354 455.3C356.1 454.5 357 454.2 360.5 453.5C362.1 453.2 363.9 452.6 364.5 452.1C365 451.7 367.3 450.8 369.5 450.1C375.9 448.1 394.7 439.4 396 437.9C396.3 437.6 399.4 435.4 403 433C410.8 427.8 416.3 423.3 433.5 408C440.7 401.7 449.9 393.6 454 390C458.1 386.5 464 381.3 467 378.5C473.4 372.7 487.5 360.3 511.5 339.6C520.9 331.5 531.9 321.7 536 317.9C544 310.6 550.9 305.4 551.1 306.7C551.7 310.5 550.7 379.7 550 381.4C549.6 382.7 546.8 385.7 543.9 388.1C538.6 392.5 499.8 426.2 478.5 444.9C453.4 466.9 444.5 473.7 428 483.5C411.9 493 384 505.5 377 506.2C375.6 506.4 374.3 506.8 374 507.1C373.3 507.9 358.2 511.6 348 513.4C337.5 515.3 331.4 515.9 318.3 516.6C308.3 517.2 308 517.1 308 515.1C308 513.7 308.6 513 309.9 513C311 513 312 512.5 312.2 511.9C312.4 511.3 314.8 510.6 317.5 510.4C336.6 508.7 343 507.6 371 501C377.4 499.5 393.7 493.1 399 490C401.5 488.6 405.8 486.5 408.6 485.3C411.3 484.2 415.6 482 418.1 480.4C420.5 478.9 424.5 476.5 427 475.2C438 469.3 449.1 460.2 469.4 440.6C473.3 436.9 478.1 432.7 480 431.5C483.6 429.2 484.9 428 498.3 415.7C502.6 411.7 507.6 407.7 509.4 406.7C511.2 405.8 514 403.3 515.6 401.3C519.7 396.1 522.4 393.6 525.7 392C530.7 389.4 537.8 381.7 539.6 377C541.8 370.9 541.8 339.1 539.5 333.6C538.1 330.2 537.8 330.1 535.2 331.2C533.7 331.8 529.5 335.4 525.8 339.2C522.1 342.9 518.7 346 518.1 346C517.6 346 516.2 347.4 515 349C513.8 350.7 512.3 352 511.5 352C510.8 352 509.5 353.1 508.6 354.5C507.7 355.9 506.5 357 506.1 357C505.6 357 503.8 358.2 502.2 359.8C487.8 373.3 484.8 376 484 376C483.5 376 481.6 377.6 479.7 379.5C477.8 381.4 475.9 383 475.5 383C475.1 383 473.1 384.7 471.1 386.8C466.1 391.9 456.8 400 455.8 400C455.3 400 451.7 403.1 447.7 406.8C434.2 419.6 430.3 423 429.2 423C428.6 423 428 423.4 427.8 423.8C427.4 424.9 402.1 442 401 442C400.5 442 399.5 442.6 398.8 443.3C396.5 445.6 375.7 454.8 367 457.3C324.5 469.9 295.3 470.2 252 458.7C233.4 453.8 209.9 442.7 196.6 432.6C186.2 424.7 179.1 420.1 176.3 419.4C174.7 419 172.7 420.2 167.7 425C159.4 432.8 154 436.9 151.9 437C151 437 149.7 438.4 148.9 440.1C147.8 443 147.8 443.4 149.8 445.1C151 446 152 447.9 152 449.2C152 450.5 153 452.2 154.2 453C155.3 453.8 157 455.3 157.9 456.3C158.7 457.2 160 458 160.7 458C161.4 458 162.5 458.9 163.2 460C163.9 461.1 164.8 462 165.3 462C165.7 462 167.5 463.3 169.2 464.9C171 466.6 173.5 468.5 174.9 469.2C176.4 469.9 178.4 471.3 179.4 472.3C180.5 473.2 182 474 182.7 474C183.4 474 184 474.5 184 475C184 475.6 184.5 476 185 476C185.6 476 188.2 477.5 190.8 479.3C195.7 482.6 197.4 483.5 205 486.8C239.2 501.6 263.3 508.2 289.3 509.9C300.4 510.6 301.9 511.3 302 515.3C302 516.6 301.1 517 297.7 517C295.3 517 293.1 516.8 292.9 516.6Z" fill="#2976C0"/>
<path d="M305.8 425.2L302 424.9V419.9V415H305.5C307.5 415 312 415.7 315.6 416.6C321.7 418.2 322.7 418.2 329 416.6C332.7 415.7 336.6 415 337.6 415C339.5 415 349.1 411.9 350 411C350.3 410.7 353.7 409 357.5 407.2C361.4 405.3 367 402.2 370 400.2C373 398.2 376.7 395.8 378.2 395C379.6 394.2 382.3 392.6 384.2 391.6C388.5 389.2 404 373.7 404 371.9C404 370.6 411.1 360.4 412.9 359C413.2 358.7 415.7 355.2 418.4 351.2L423.3 343.9L427.9 344.2C433 344.5 433.7 345.6 432.6 351.4C432.2 353.6 431.1 355.1 429.2 356.1C427.7 356.9 426.2 358 425.8 358.5C407.8 386 380.7 407.8 351.3 418.3C341.1 422 322.8 425.3 317.4 424.5C315 424.2 312.3 424.3 311.3 424.7C310.3 425.2 307.8 425.4 305.8 425.2Z" fill="#2976C0"/>
<path d="M168 289.5V282H171.3C173 282 176.4 282.9 178.8 284C181.2 285.1 185.3 286.2 188 286.6C192.9 287.2 193 287.3 193 290.6V294H187C182.5 294 180.8 294.4 180.4 295.5C179.9 296.6 178.2 297 173.9 297H168V289.5Z" fill="#2976C0"/>
<path d="M62.9 280.3C62.9 279.8 62.9 263.1 63 243L63.1 206.5L68.3 201.5C71.2 198.7 83.1 188.2 94.9 178C106.7 167.8 117.2 158.7 118.2 157.7C119.2 156.8 120.2 156 120.5 156C120.8 156 122.4 154.4 124.1 152.5C125.8 150.6 127.6 149 128.1 149C128.6 149 132.3 145.9 136.3 142C140.2 138.2 143.8 135 144.2 135C144.6 135 146.6 133.1 148.7 130.9C150.8 128.6 155.2 124.7 158.5 122.2C161.8 119.7 164.7 117.3 165 117C165.9 115.9 177.6 108 178.2 108C178.6 108 180.6 106.9 182.6 105.5C187.7 102 213.3 89.7 219.7 87.6C222.6 86.6 225.2 85.4 225.5 84.9C225.9 84.4 227.1 84 228.3 84C229.6 84 231.5 83.3 232.6 82.5C233.8 81.7 235 81.3 235.2 81.6C235.5 81.8 237 81.5 238.6 80.9C240.2 80.3 242.6 79.6 243.9 79.4C245.2 79.2 247 78.8 247.9 78.4C248.8 78 250.2 77.6 251 77.5C251.8 77.4 256.1 76.5 260.5 75.5C275.5 72.2 277.1 72.1 306.5 72C334.1 72 344.8 73.1 364 77.9C383.7 82.8 416.3 96.4 429 105C431.5 106.6 434.1 108 434.8 108C435.4 108 436 108.5 436 109C436 109.6 436.7 110 437.5 110C438.3 110 439 110.5 439 111C439 111.6 439.5 112 440 112C442.2 112 470.8 134.2 471.7 136.6C472 137.4 472.8 138 473.4 138C474.1 138 475.7 139.1 477 140.5L479.3 143L475.8 146.3C469.2 152.5 436.9 180.1 435.6 180.6C434.9 180.9 431.2 178.4 427.3 175.1C417.9 167.3 402.4 156.3 392.6 150.5C379.6 142.8 354.3 132.4 344.6 130.6C343.2 130.3 341.2 129.9 340.2 129.6C339.3 129.3 336 128.8 333 128.5C330 128.1 326.2 127.6 324.5 127.4C320.6 126.8 297.9 126.9 289.2 127.5C266.7 129 236.7 139.2 213.1 153.4C201.1 160.7 195.3 165.3 163.5 192.9C159.7 196.2 156.3 199 156 199C155.7 199 152.4 202 148.5 205.6C144.7 209.2 137.8 215.4 133.3 219.4C116.3 234.3 84.1 262.8 74.3 271.7C64.2 280.9 63.1 281.7 62.9 280.3ZM75.1 257.1C76.2 255.7 80.3 252 84.1 248.9C87.9 245.8 93.2 241 95.8 238.4C103.5 230.7 111 224 111.9 224C112.4 224 113 223.3 113.4 222.5C113.7 221.7 114.5 221 115.3 221C116 221 117.9 219.7 119.5 218C121.1 216.4 122.9 215 123.6 215C124.3 215 125 214 125.2 212.8C125.4 211.1 126.3 210.4 128.3 210.2C129.8 210 131 209.3 131 208.7C131 207.1 145.2 193 146.8 193C148.4 193 156 187.6 162.3 181.8C167.5 177.2 178.7 167.7 187 161C189.3 159.1 192.7 156.8 194.4 155.9C196.1 155.1 199.9 152.7 202.9 150.7C205.8 148.7 208.7 147 209.2 147C209.7 147 212 145.7 214.4 144.1C216.7 142.5 221.5 139.8 225 138.2C237.4 132.5 243.1 130 244 130C244.5 130 248.4 128.9 252.5 127.5C266.2 123.1 277.1 121.6 305.1 120.3C313.2 119.9 314.9 120.1 316.4 121.5C317.7 122.8 318.4 123 319.3 122.1C320.7 120.7 326.7 120.6 327.5 122C327.8 122.6 331 123 334.4 123C337.9 123 343.2 123.7 346.1 124.6C361.9 129.4 379.9 136.3 389.5 141.3C397.4 145.4 420.6 160.3 423.4 163.2C426.8 166.6 432.4 169.2 434.5 168.4C435.3 168.1 439.7 164.2 444.2 159.8C455.2 149.2 455.5 149 456.8 149C457.5 149 458 148.3 458 147.5C458 146.6 458.9 146 460.3 146C461.5 146 463.3 145.3 464.3 144.6C466 143.3 466 142.9 464.7 140.3C463.2 137.6 458.7 133 457.4 133C457 133 453.7 130.6 450.1 127.6C443 121.8 419.1 105.7 412.5 102.2C397.4 94.4 377.3 86.8 360.5 82.7C338.8 77.4 330.5 76.5 302.5 76.6C280.5 76.6 276.4 76.9 268 78.8C245.5 84 234.1 87.8 217.5 95.4C207.6 100 180.4 116.3 174 121.4C170.4 124.3 166.6 127.2 165.4 127.8C164.3 128.4 161.2 131.1 158.5 133.9C155.8 136.7 153 139 152.4 139C151.7 139 149.6 140.8 147.7 143C145.8 145.2 143.9 147 143.3 147C142.8 147 141.4 148.4 140.2 150C138.9 151.7 137.3 153 136.5 153C135.7 153 134.7 153.6 134.3 154.3C133.9 154.9 132.6 156 131.6 156.6C130.5 157.2 129.2 158.5 128.6 159.5C126.1 163.6 111.5 177 109.3 177C108.7 177 108.1 177.5 102.7 182.4C101.2 183.8 99.6 185 99.2 185C98.8 185 97.2 186.6 95.6 188.5C94 190.4 92.1 192 91.4 192C90.7 192 89.7 192.6 89.3 193.3C88.9 194 84.5 197.6 79.5 201.4C74.5 205.1 69.7 209.6 68.8 211.3C67.3 214 67.1 217.6 67 234.7C67 247.1 67.4 255.1 68 255.5C68.6 255.8 69 257.2 69 258.5C69 260.3 69.4 260.7 71 260.3C72.1 260 74 258.6 75.1 257.1Z" fill="#2976C0"/>
<path d="M181 237.9C181 237.3 182.5 235.4 184.3 233.7C186 231.9 190.4 226.2 194 221C208 200.5 231.5 181.6 253.1 173.5C257.2 172 261.5 170.2 262.6 169.4C263.8 168.7 265.8 167.9 267.1 167.7C268.4 167.5 270.2 167 271 166.7C272.8 165.9 277.9 164.9 280 164.8C280.8 164.8 282.1 164.3 282.7 163.8C283.4 163.2 285.1 163.1 286.6 163.4C288.1 163.8 289.8 163.6 290.6 162.9C291.4 162.2 293.3 162 295.4 162.4C297.3 162.8 299.1 162.7 299.3 162.3C299.8 161.6 301.8 161.5 308 161.9C309.3 162 310 162.7 310 164C310 165.3 309.3 166 308 166C306.9 166 306 166.5 306 167C306 167.6 303.6 168 300.7 168C297.8 168 289.1 169.1 281.4 170.5C270.4 172.4 265.9 173.7 260 176.7C241.2 186.2 224.7 198.2 212 211.7C197.8 226.8 192 233.1 189.9 236C188.2 238.3 186.8 239 184.3 239C182.5 239 181 238.5 181 237.9Z" fill="#2976C0"/>
<path d="M298.3 515.6C297.1 513.5 291 512.2 291 514.1C291 515.2 290.8 515.2 290 514C289.5 513.2 289 513 289 513.6C289 515.5 285.1 515.9 283.4 514.3C282.6 513.5 281.1 513 280 513.3C279 513.6 277.9 513.3 277.6 512.6C277.3 511.9 277.1 511.9 277.1 512.8C277 514.5 274.3 514.3 273.6 512.5C273 510.8 270 510.4 270 512C270 513.4 267.9 513.2 266.6 511.7C266 510.9 260.6 509.3 254.5 508.1C241.4 505.4 205.9 492.6 195.7 486.9C194.7 486.4 193.5 486.2 193 486.5C192.4 486.9 192 486.7 192 486.1C192 485 183.5 479 181.9 479C181.4 479 181 478.6 181 478C181 477.5 180.4 477 179.7 477C179 477 177.5 476.2 176.4 475.3C175.4 474.3 173.4 472.9 171.9 472.2C170.5 471.5 168 469.6 166.2 467.9C164.5 466.3 162.7 465 162.3 465C161.8 465 160.9 464.1 160.2 463C159.5 461.9 158.5 461 157.8 461C157.2 461 156 460.3 155.1 459.5C154.2 458.7 152 456.6 150.1 454.9C147.4 452.5 147 451.6 148.1 450.9C149.2 450.2 149.1 449.8 147.4 448.6C146.2 447.7 144.7 445.8 144.1 444.2C143 441.6 143.2 440.8 145.5 437.4C147 435.2 148.6 433.6 149.2 433.8C150.6 434.2 156.6 429.6 165 421.7C168.9 418 173.1 415 174.1 415C178.7 415 185 418.6 199.5 429.6C207.9 435.9 224 444.6 237.5 450C251.1 455.4 269.3 459.8 288.5 462.4C313.2 465.7 332.3 463.7 364 454.3C372.7 451.8 393.5 442.6 395.8 440.3C396.5 439.6 397.5 439 398 439C399.1 439 424.4 421.9 424.8 420.8C425 420.4 425.6 420 426.2 420C427.3 420 431.2 416.6 444.7 403.8C448.7 400.1 452.3 397 452.8 397C453.8 397 463.1 388.9 468.1 383.8C470.1 381.7 472.1 380 472.5 380C472.9 380 474.8 378.4 476.7 376.5C478.6 374.6 480.5 373 481 373C481.8 373 484.8 370.3 499.2 356.8C500.8 355.2 502.6 354 503.1 354C503.5 354 504.7 352.9 505.6 351.5C506.5 350.1 507.8 349 508.5 349C509.3 349 510.8 347.7 512 346C513.2 344.4 514.6 343 515.1 343C515.7 343 519.1 339.9 522.8 336.1C529.2 329.5 532.7 327.4 538 326.8C542 326.3 543.9 331.8 544.6 345.3C544.9 351.4 545.1 357.2 545.1 358C545 358.8 544.9 363.4 544.9 368.3C544.9 373.2 544.5 377 543.9 377C543.3 377 543.3 377.6 543.9 378.8C544.7 380.3 543.7 381.7 538.2 387C534.5 390.6 530.2 394.2 528.7 395C525.4 396.6 522.7 399.1 518.6 404.3C517 406.3 514.2 408.8 512.4 409.7C510.6 410.7 505.6 414.7 501.3 418.7C487.9 431 486.6 432.2 483 434.5C481.1 435.7 476.3 439.9 472.4 443.6C452.1 463.2 441 472.3 430 478.2C427.5 479.5 423.5 481.9 421.1 483.4C418.6 485 414.3 487.2 411.6 488.3C408.8 489.5 404.5 491.6 402 493C397.2 495.8 381 502.2 374.5 503.9C372.3 504.5 366 505.9 360.5 507.1C354.7 508.3 350 509.9 349.3 510.8C348.6 511.7 348 511.9 348 511.3C348 510.7 347.1 510.4 346 510.7C344.9 511 344 511.6 344 512.2C344 512.7 343.1 512.6 342 512C339.7 510.8 336 511.5 336 513.3C336 514.1 335.7 514.1 334.8 513.2C333.1 511.5 331.6 511.7 329 514C326.9 515.8 326.5 515.9 325.8 514.5C324.4 512.1 314.4 512.9 315.3 515.4C315.6 516.1 313 516.6 307.5 516.8C300.8 517.1 299 516.9 298.3 515.6Z" fill="#2976C0"/>
<path d="M302.3 408.4C302.7 399.2 303 383.9 303 374.5V357.2L308.8 356.5C338.6 353 365 326.9 367.7 298.3L368.3 292L406.4 292.2L444.5 292.5L444.2 300.5C443.6 317.5 440.5 333.2 435.3 345.2C433.4 349.4 432.2 351 430.8 351C429.6 351 429 350.4 429.2 349.3C429.4 348.3 428.8 347.4 427.9 347.2C426.8 347 424.6 349.4 421.4 354.2C418.7 358.2 416.2 361.7 415.9 362C414.1 363.4 407 373.6 407 374.9C407 376.7 391.5 392.2 387.2 394.6C385.3 395.6 382.6 397.2 381.2 398C379.7 398.8 376 401.2 373 403.2C370 405.2 364.4 408.3 360.5 410.2C356.7 412 353.3 413.7 353 414C352.1 415 342.5 418 340.5 418C339.3 418 335.7 418.7 332.5 419.6C325.5 421.5 319.5 421.5 312.2 419.5C308.4 418.5 307 418.5 307 419.3C307 420 306.5 419.9 306 419C305.2 417.9 305.1 418.4 305.2 421C305.4 423.7 305.1 424.5 303.6 424.8C301.7 425.2 301.7 424.6 302.3 408.4Z" fill="#2976C0"/>
<path d="M174 296C174 295.5 172.7 295 171 295C168 295 168 294.9 168 289.5C168 280 170.1 263.7 172.2 257.5C175.9 246.3 180.9 236.2 182 236C182.6 236 183 235.6 183.6 235.6C184.2 235.5 186.2 233.7 188 231.5C191.3 227.6 194.1 224.6 208.6 209.2C221.7 195.2 238 183.3 257 173.7C265.2 169.6 280.3 166.2 294.5 165.3C298.9 165 302.7 164.4 303 164C303.3 163.6 304.7 163 306.3 162.6L309 162V192.3C309 209.1 308.7 224.8 308.4 227.2L307.8 231.8L302.6 232.4C289.7 234.1 273.3 241.2 265 248.7C253.9 258.7 245.4 274.7 243.5 289.3C243.1 292.4 242.4 294 241.4 294C240.6 294 240 294.7 240 295.5C240 296.8 235.7 297 207 297C185.7 297 174 296.6 174 296Z" fill="#2976C0"/>
<path d="M66.5 264.4C65.6 263.5 65.2 262 65.5 261C65.8 260 65.6 258.9 65 258.5C64.4 258.1 64 249.7 64 234.7C64.1 214.8 64.3 211.1 65.8 208.3C66.7 206.6 71.5 202.1 76.5 198.4C81.5 194.6 85.9 191 86.3 190.3C86.7 189.6 87.7 189 88.4 189C89.1 189 91 187.4 92.6 185.5C94.2 183.6 95.8 182 96.2 182C96.6 182 98.2 180.8 99.7 179.4C105.1 174.5 105.7 174 106.3 174C108.4 174 125 159 125 157.1C125 156 130 151.5 130 152.6C130 153.1 130.5 152.7 131.1 151.8C131.6 150.8 132.7 150 133.5 150C134.3 150 136.1 148.4 137.5 146.5C139 144.6 140.5 143.2 140.9 143.3C141.3 143.4 143.1 141.8 144.9 139.8C146.7 137.7 148.7 136 149.4 136C150 136 152.8 133.7 155.5 130.9C158.2 128.1 161.3 125.4 162.4 124.8C163.6 124.2 167.4 121.3 171 118.4C177.4 113.3 204.6 97 214.5 92.4C225.6 87.3 238 82.7 247 80.3C272.6 73.5 270.9 73.7 305.7 73.5C323.4 73.5 337.7 73.7 337.4 74.1C337.2 74.5 339.8 75.1 343.3 75.5C361.8 77.6 394.6 88.4 415.5 99.2C422.1 102.7 446 118.8 453.1 124.6C456.7 127.6 460 130 460.4 130C462 130 466.4 135 468.6 139.2C469.9 141.8 471 144.2 471 144.4C471 145.7 463.6 149.8 462.2 149.2C461 148.8 460.8 149.1 461.3 150.5C462.1 152.3 460.5 155 458.8 155C458.2 155 458.3 154.3 459 153.5C459.7 152.7 459.9 152 459.5 152C458.5 152 457.8 152.6 447 163.1C439.8 170 437.9 171.3 434.5 171.7C429.7 172.3 424.4 170.2 420.4 166.2C418.8 164.6 411.4 159.5 404 154.8C385.2 143.1 382.9 141.8 381.4 142.4C380.6 142.7 380 142.5 380 141.9C380 141.3 379.5 141.2 379 141.5C378.4 141.8 378 141.6 378 140.9C378 140.2 377.7 139.9 377.4 140.3C377 140.6 376.1 140.2 375.3 139.4C374.4 138.6 373.1 138.1 372.4 138.4C371.6 138.7 371 138.4 371 137.8C371 137.2 370.7 136.9 370.4 137.3C370 137.6 369.1 137.2 368.3 136.4C367.4 135.6 366.1 135.1 365.4 135.4C364.6 135.7 364 135.5 364 134.9C364 134.3 363.3 134 362.5 134.4C361.7 134.7 361 134.5 361 133.9C361 133.3 360.3 133 359.5 133.4C358.7 133.7 358 133.5 358 132.9C358 132.3 357.3 132 356.5 132.4C355.7 132.7 355 132.5 355 132C355 130.8 348.2 128.7 346.5 129.4C345.7 129.7 345 129.4 344.9 128.7C344.9 128 344.5 128.4 344 129.5C343.2 131.5 343.1 131.4 343.1 129.4C343 127.8 342.2 127.1 339.8 126.6C337.9 126.2 336.4 126.4 336.2 127C335.7 128.3 332 128.3 332 127C332 126.5 330.7 126.3 329 126.7C326.7 127.1 325.6 126.8 324.6 125.5C323.7 124.2 323.1 124 322.6 124.8C321.5 126.6 315.1 126.2 313.3 124.4C312 123.1 310.1 122.9 304.8 123.2C301 123.4 297.6 124.1 297.2 124.7C296.2 126.3 293.8 126.6 291.4 125.2C289.1 124 282 124.7 282 126.2C282 126.7 281.2 126.6 280.2 126.1C278 124.9 264.3 127.5 254.3 130.9C250.9 132 247.6 133 247.1 133C246.1 133 240.6 135.4 228 141.2C224.5 142.8 219.7 145.5 217.4 147.1C215 148.7 212.7 150 212.2 150C211.7 150 208.8 151.7 205.9 153.7C202.9 155.7 199.1 158.1 197.4 158.9C195.7 159.8 192.3 162.1 190 164C181.7 170.7 170.5 180.2 165.3 184.8C159 190.6 151.4 196 149.8 196C148.4 196 134 210 134 211.2C134 212.4 127.9 218 126.6 218C126.1 218 123.6 219.9 121.1 222.3C118.7 224.6 117 225.8 117.4 225C117.8 224.2 117.2 224.7 116 226.3C114.8 227.8 113.4 229 112.9 229C111.9 229 105.7 234.4 98.8 241.4C96.2 244 90.8 248.8 86.9 252C83 255.2 79.2 258.7 78.5 259.8C77.3 261.4 70 266 68.5 266C68.3 266 67.4 265.3 66.5 264.4Z" fill="#2976C0"/>
<path d="M294.9 424.6C294.7 424.4 292.3 424 289.5 423.7C258.6 420.5 229.4 405.6 205.4 380.8C193.1 368 182.1 349.5 176.4 331.9C175 327.3 173.6 323.3 173.4 323.1C173.2 322.9 172.4 323.2 171.7 323.8C170.6 324.8 170.1 323.1 169.2 314.2C167.5 298.9 167.6 291 169.5 291C170.3 291 171 291.7 171 292.5C171 293.8 175.5 294 205.5 294C235.5 294 240 293.8 240 292.5C240 291.7 240.9 291 242 291C243.7 291 244 291.7 244 296.3C244 303.6 248.3 318.3 252.2 324.6C259 335.5 269.6 344.4 283.5 351C289.3 353.8 293.8 354.9 305.8 356.6C309 357.1 310.5 360 307.5 360C306.2 360 306 363.3 305.9 383.3C305.8 396 305.6 407.6 305.5 409C305.4 410.4 305.2 414.5 305.1 418.3L305 425H300.2C297.5 425 295.1 424.8 294.9 424.6Z" fill="#52B348"/>
<path d="M367.5 296.8C367.3 296.1 366.9 291.8 366.7 287.2C366.2 280 365.6 277.9 361.8 270.3C356.6 259.9 350.1 252.5 340.6 246.1C329.3 238.5 318.8 234.3 308.3 233.3C303 232.8 302 232.4 302 230.9C302 229.8 302.7 229 303.5 229C304.3 229 305.1 228.9 305.2 228.8C305.3 228.6 305.6 213.7 305.9 195.5L306.5 162.5L313 162.4C318.9 162.2 323.2 162.7 332.6 164.4C353.3 168.2 379.9 181.5 397.4 196.7C414.9 212.1 430.1 235 436 255C438.8 264.3 438.9 264.4 440.6 262.9C441.4 262.3 442 262.1 442 262.6C442 263.1 442.7 268.9 443.5 275.5C444.3 282.1 445 289.9 445 292.8C445 297.3 444.7 298 443 298C441.9 298 441.1 297.4 441.2 296.8C441.4 295.8 433.8 295.4 406.3 295.2C375.3 295 371 295.2 371 296.5C371 298.3 368.1 298.5 367.5 296.8Z" fill="#52B348"/>
<path d="M35.1 411L35.2 376H37.6H40V398C40 420.6 40.7 425 44 425C44.9 425 48.7 422.3 52.3 419C55.9 415.7 59.4 413 60.2 413C60.9 413 62.4 411.7 63.4 410.1C64.5 408.5 66.5 406.5 67.9 405.6C69.3 404.8 72.2 402.5 74.2 400.5C76.2 398.6 78.3 397 78.9 397C79.5 397 80 396.6 80 396.2C80 395.7 81.2 394.7 82.8 393.9C84.3 393.1 86.3 391.5 87.3 390.3C88.5 388.9 90.2 388 92 388C94.4 388 95.1 387.5 95.7 385.1C96.3 382.8 104.1 373 105.3 373C105.5 373 108.7 370.1 112.6 366.5C116.4 362.9 120.7 359.2 122.3 358.3C123.8 357.3 125 356 125 355.4C125 354.7 125.9 353.8 127 353.5C128.1 353.2 129 352.2 129 351.4C129 350.6 129.5 350 130 350C130.6 350 134.5 346.6 138.8 342.5C143 338.4 146.8 335 147.1 335C148.1 335 153.5 330.2 160.3 323.3C165.4 318.1 167 317 169.7 317C172.7 317 173 317.3 173 319.9C173 322.1 171.5 324.2 165.8 329.6C161.8 333.4 155.6 338.9 152 341.9C148.4 344.8 140.1 352.3 133.5 358.4C113.5 377.1 85.1 402.4 52.6 430.6C48.7 434 43.5 438.8 41 441.4C38.6 443.9 36.2 446 35.8 446C35.3 446 35 430.3 35.1 411Z" fill="#EC6625"/>
<path d="M297 358.9C289.5 357.9 283.7 356 276 351.7C253.1 339.1 242.6 322.7 240.6 296.8C240.1 290.7 240.3 290 241.9 290C244.1 290 245 291.9 245 296.8C245 302 246.6 307.2 249 309.8C250.2 311.1 251 313.3 251 315.6C251 318.2 251.5 319.3 252.8 319.7C253.8 319.9 255.2 321.7 255.9 323.6C256.6 325.5 257.6 327 258.1 327C258.6 327 259.8 328.7 260.8 330.7C263.2 335.9 273.7 346 276.7 346C277.7 346 280.2 346.9 282.3 348C284.3 349.1 286.6 350 287.4 350C288.1 350 289.3 350.7 290 351.5C290.8 352.4 293.2 353 296.4 353.1C305.2 353.3 307.5 354.2 307.8 357.3C308.2 360.4 308.2 360.4 297 358.9Z" fill="#EC6625"/>
<path d="M426.2 356.3C430.7 346.9 435.7 333.9 437 328.3C438.3 322.7 440.6 321.1 441.2 325.4L441.5 327.9L445.5 326C447.7 324.9 450.1 324.1 450.8 324C452.7 324 457.5 320.4 463.5 314.8C466.3 312.2 468.8 310 469.1 310C469.4 310 472.6 307.2 476.2 303.8C485.4 295 489.2 292.1 491.3 292C492.2 292 493 291.4 493 290.7C493 289.9 494.9 287.5 497.3 285.2C499.6 282.9 502 280.5 502.6 279.8C503.1 279.1 505.4 277.2 507.5 275.5C509.6 273.9 512.5 271.3 513.9 269.8C515.3 268.2 516.8 267 517.2 267C518 267 523.2 262.4 533.4 252.5C537.4 248.7 543.7 242.8 547.5 239.5C555.6 232.5 565 223.4 565 222.6C565 222.3 565.9 221.1 566.9 220.1C568.3 218.7 569 216 569.5 209.3C570.3 200.5 569.5 174.9 568.4 169.7C567.6 166.3 564.8 166.2 560.4 169.3C549.6 176.8 547.1 178.8 543.1 182.2C540.7 184.3 538.1 186 537.3 186C535.4 186 533 188.5 533 190.4C533 191.5 532.1 192 530 192C528 192 527 192.5 527 193.5C527 194.3 526.6 195 526.2 195C525.8 195 522.3 197.9 518.5 201.5C514.6 205.1 510.9 208 510.3 208C509.6 208 509 208.4 509 209C509 210 504.3 215 503.2 215C502.8 215 500 217.4 496.9 220.3C493.8 223.1 489.2 227.3 486.6 229.5C484.1 231.7 482 233.9 482 234.4C482 234.8 480.2 237.4 477.9 240.1C475.2 243.3 473 245 471.6 245C470.2 245 467.2 247 464.1 250C461.2 252.8 458.5 255 458 255C457.5 255 456.8 255.9 456.5 257C456.2 258.1 455.3 259 454.7 259C454 259.1 451.5 261.1 449 263.5C446.5 266 444.2 268 443.8 268C443.3 268 443 268.9 443 270C443 272.4 440.5 272.7 439.6 270.4C437.9 265.9 439 264.2 450.3 254.4C456.4 249 465.6 240.9 470.5 236.5C475.5 232.1 482.4 226 486 223C491.8 218.1 505.8 205.6 518 194.3C520.5 192 524.3 188.7 526.6 186.8C528.9 185 540.9 174.4 553.4 163.2C565.9 152.1 576.5 143 577.1 143C577.6 143 578 158.6 578 183.4V223.7L559.3 240.4C548.9 249.6 537.1 260.2 533 263.9C528.9 267.7 523.9 272 522 273.6C520.1 275.1 515.6 279.1 512 282.5C508.4 285.8 499.2 293.9 491.5 300.5C483.8 307.1 477.3 312.7 477 313C476.7 313.3 471.6 318 465.5 323.5C459.5 329 451.7 336.1 448.4 339.3C445 342.5 440.7 346.3 438.9 347.8C437.1 349.3 434 352 432.1 353.8C429 356.7 425.3 358.2 426.2 356.3Z" fill="#EC6625"/>
<path d="M90.3 317.3C89.6 317.1 89 316.3 89.1 315.7C89.1 315 98.9 306 110.8 295.7C122.7 285.4 134.6 275 137.1 272.7C144.8 265.7 156.3 255.6 158.7 253.7L161 251.9V255.4C161 257.9 160.6 259 159.5 259C158.7 259 158 259.7 158 260.5C158 261.3 157.4 262 156.7 262C156 262 154.8 262.9 154 264C153.2 265.1 151.8 266 150.8 266C149.6 266 149 266.8 149 268.1C149 269.5 148 270.5 146 271.3C144.4 271.9 143 273 143 273.7C143 274.4 142.3 275 141.5 275C140.7 275 140 275.7 140 276.5C140 277.3 139.1 278 138 278C136.7 278 136 278.7 136 279.8C136 281.9 124.4 293.5 121.4 294.4C120.3 294.8 118.7 296.3 118 297.8C116.3 301.1 113 305 111.8 305C110.9 305 102.4 312.6 99.1 316.3C97.6 317.9 93.1 318.5 90.3 317.3Z" fill="#EC6625"/>
<path d="M363.5 280C363.1 277.3 362.5 275 362.1 275C361.7 275 360.6 273 359.6 270.5C358.5 268 357.3 266 356.9 266C356.5 266 355.8 265 355.5 263.8C354.1 259.2 337.2 245.2 327.8 240.7C314.5 234.3 315.4 234.5 300.8 234.7C290.2 234.8 287 234.5 287 233.5C287 232.4 290.4 231.2 298.3 229.5C304.8 228.2 322.7 231.8 333 236.7C339.7 239.8 350.6 247.8 355.6 253.2C361.4 259.6 368.6 273.5 369.6 280.3L370.2 285H367.2C364.3 285 364.2 284.7 363.5 280Z" fill="#EC6625"/>
<path d="M59 415.1C59 412.9 59.8 411.6 62.3 409.9C64 408.6 65.7 407.2 65.8 406.8C66 406.4 66.8 406 67.5 406C68.2 406 69 405.3 69.4 404.5C69.7 403.6 71.2 403 73 403C75.5 403 76 402.6 76 400.5C76 399.1 76.4 398 76.8 398C77.3 398 78.6 396.3 79.8 394.3C82.5 389.5 93.7 378.7 98.7 376.1C102.7 374 103 373.8 113.8 362.4C117.5 358.5 122.3 354.1 124.5 352.8C126.7 351.4 129.1 349.5 129.9 348.6C130.6 347.7 131.6 347 132 347C133.1 347 152 328 152 326.9C152 325.3 162.7 320.8 165.5 321.2C168 321.5 167.9 321.7 162.6 327C156.2 333.5 151 338 150.1 338C149.8 338 146 341.4 141.8 345.5C137.5 349.6 133.6 353 133 353C132.4 353 132.1 353.4 132.5 353.9C132.8 354.5 132.3 355.3 131.4 355.8C129.9 356.6 129.9 356.8 131.5 357.4C134.1 358.4 131.4 361.1 128.6 360.4C126.9 360 124.8 361.2 119.9 365.5C116.4 368.6 112.3 372.6 110.8 374.3C109.2 376 108 377.1 108 376.7C108 376.4 106.1 378.1 103.8 380.7C101.4 383.2 99.6 385.9 99.8 386.6C100 387.4 98.9 389.2 97.5 390.7C96.1 392.2 95 392.9 95 392.2C95 390.4 92.6 390.7 90.7 392.8C89.5 394.1 89.3 394.9 90.1 395.7C90.9 396.5 90.9 397 90.1 397.4C89.5 397.8 89 397.6 89 397.1C89 395.4 86.6 395.8 84.2 398C83 399.1 81.8 400 81.5 400C81.2 400 79.1 401.6 77 403.6C74.8 405.6 72 408 70.8 408.8C68.8 410.2 67.1 412 64.9 415.3C64.6 415.7 63.7 416.2 62.9 416.3C62.1 416.5 60.9 416.9 60.3 417.3C59.4 417.9 59 417.3 59 415.1Z" fill="#EC6625"/>
<path d="M36.9 382.8C36.8 378.8 36.7 378.7 36 381.5C35.5 383.5 35.2 380.7 35.2 373.5L35.1 362.5L43.7 355C48.4 350.9 61.2 339.5 72.2 329.8C84.8 318.6 92.6 312.3 93.5 312.7C94.3 313 94.7 313.7 94.3 314.3C93.9 314.9 94.2 315 94.9 314.6C95.6 314.1 95.9 313.1 95.6 312.3C95.2 311.3 95.4 311 96.4 311.3C97.1 311.6 98.3 311.3 98.9 310.7C99.7 309.9 100 310.4 100 312.8C100 314.6 99.6 316 99 316C98.5 316 98 316.6 98 317.3C98 318 95.4 321 92.3 324.1C85.4 330.5 61.4 351 60.6 351C60.3 351 58.8 352.2 57.2 353.8C55.6 355.3 53.4 357.2 52.4 358.1C44.6 364.6 42.1 369.7 41.3 380.8C40.9 386.1 40.5 387 38.9 387C37.3 387 37 386.2 36.9 382.8Z" fill="#EC6625"/>
<path d="M304.6 358.4C304 356.9 303.7 356.8 303 357.9C302.3 359.1 301.9 359 300.5 357.7C298.6 355.7 295.4 355.5 294.7 357.3C294.3 358.2 293.9 358.1 293.1 357C292.2 355.7 291.9 355.7 291.1 356.9C290.4 358 289.8 357.7 287.9 355.6C286.7 354.2 285 353 284.3 353C283.6 353 281.3 352.1 279.3 351C277.2 349.9 274.8 349.3 273.8 349.6C272.7 349.9 271.5 349.2 270.4 347.6C269.5 346.2 268.4 345.2 268 345.5C267.6 345.8 266.9 345.3 266.6 344.4C266.3 343.6 265.6 343.1 265.2 343.4C264.7 343.7 263.6 342.6 262.6 340.9C261.7 339.3 260.5 338 260.1 338C259.6 338 258.9 336.9 258.6 335.6C258 333.3 257 331.8 250.8 324.7C248.9 322.6 248 320.4 248 318.2C248 316.3 247.2 314 245.9 312.7C244.8 311.5 243.6 309.3 243.3 307.8C243 306.3 242.5 305.2 242.1 305.4C241.8 305.6 241.7 303.8 241.9 301.4C242 298.9 241.7 295.6 241 294C240.1 291.9 240.1 289.4 240.9 284.3C244 264.5 257.5 245.8 275 237.2C279.7 235 285.5 232.6 288 232C293.4 230.7 314.3 230.1 312.7 231.3C312 231.8 313.1 232 315.3 231.8C317.3 231.6 319 231.7 319 232C319 232.3 320.5 233.1 322.3 233.8C331 237.3 338.8 242 347 248.7C351.9 252.8 356 256.5 356 257C356 257.6 356.7 258 357.6 258C358.4 258 358.9 258.4 358.6 258.9C357.7 260.3 359.1 263 360.7 263C361.5 263 361.8 263.5 361.5 264C361.2 264.6 361.6 265 362.4 265C363.2 265 364.2 265.4 364.5 266C364.9 266.6 364.4 266.7 363.4 266.3C362.2 265.9 361.9 266.1 362.2 267.1C362.5 267.9 363.5 268.4 364.4 268.4C365.3 268.3 366 268.6 366 269.1C366 269.6 365.6 270 365 270C364.5 270 364 270.5 364 271C364 271.6 364.7 272 365.5 272C366.3 272 367.4 272.9 368 274C368.9 275.6 368.8 275.8 367.5 275.4C366.7 275 366 275.3 366 275.9C366 276.5 366.7 277 367.5 277C369.3 277 369.5 280.6 367.8 281.3C366.9 281.7 367.1 281.9 368.1 281.9C369.4 282 369.8 283.8 370.4 291.9C371.3 305.4 368.9 315.5 361.9 327.2C351.9 343.8 330.6 357.5 311.4 359.6C306 360.1 305.2 360 304.6 358.4Z" fill="#EC6625"/>
<path d="M445.2 327.3C445.4 325.8 446.6 324 448.1 323.1C455.5 318.5 457.6 316.7 462 310.8C464.7 307.2 467.9 303.6 469.2 302.8C470.5 302 474.5 298.5 478.3 295.1C482 291.8 485.7 289 486.6 289C487.4 289 490.7 286.3 494 283C497.3 279.7 500.6 277 501.4 277C502.2 277 503.3 275.7 503.8 274.1C504.4 272.3 506.8 269.8 509.7 267.9C512.3 266.1 516 262.9 517.8 260.7C521.6 256.1 542 239 543.7 239C544.4 239 547.1 237 549.7 234.5C552.3 232.1 555 230 555.6 230C556.3 230 557.1 228.8 557.4 227.4C558.7 222.3 565.7 219.3 570 222C571.2 222.8 571.2 223 569.7 223.6C568.8 223.9 568 224.6 568 225.2C568 226.2 550.1 243.9 549.4 243.7C549.1 243.5 535.3 256.3 523.4 267.8C522.1 269 520.7 270 520.3 270C519.8 270 518.3 271.2 516.9 272.8C515.5 274.3 513 276.5 511.4 277.7C506.2 281.6 503.6 284.4 504.8 284.8C505.5 285 506 285.6 506 286.1C506 286.5 505.3 286.7 504.4 286.3C502.3 285.5 496.1 291.6 496.7 293.9C496.9 294.8 496.1 296.4 494.8 297.5C493.5 298.6 493.1 298.8 493.8 298C496.7 294.7 494.2 293.9 490.3 297C488.9 298.1 488.2 299 488.9 299C489.5 299 490 299.8 489.9 300.8C489.9 301.8 489.6 302 489.3 301.3C489.1 300.6 488.2 300 487.5 300C485.4 300 474.1 311 474.6 312.5C475 313.4 474.5 313.7 473.3 313.4C472.2 313.2 469.8 314.6 466.9 317.3C463.2 320.8 462.5 321.8 463.7 322.6C464.9 323.3 464.5 324.1 461.8 326.5C458.8 329.3 458.7 329.3 460.9 326.8C462.3 325.2 463 323.7 462.7 323.3C461.9 322.5 457.8 324.6 455 327.2C453.8 328.4 453 328.6 453 327.8C453 327.2 452.3 327.5 451.4 328.6C450.6 329.6 450.1 329.9 450.5 329.3C451.2 327.8 449.4 327.5 448.5 329C447.2 331.2 444.9 330 445.2 327.3Z" fill="#EC6625"/>
<path d="M112.9 298.7C113.5 297.9 113.7 297 113.2 296.6C112.8 296.2 113.3 295.4 114.3 294.9C115.2 294.3 115.8 293.5 115.6 293.1C115.3 292.7 116.4 291.1 118 289.5C120.9 286.8 120.9 286.8 120.3 289.1C119.8 291.3 120 291.2 123.4 288.1L127 284.6V288.4C127 291.3 126.6 292.3 125 292.7C123.9 293 123 293.6 123 294.1C123 296 117.4 300 114.6 300C112.3 300 112 299.7 112.9 298.7Z" fill="#EC6625"/>
<path d="M128.9 282.7C129.5 281.9 129.6 281 129.2 280.6C128.8 280.2 129.1 280 129.9 280.2C130.6 280.4 132 279.2 133 277.5C134 275.9 135.3 274.6 136 274.8C136.6 274.9 136.9 274.6 136.6 274.1C135.9 273 138.4 270.8 139.3 271.7C139.7 272 140 271.6 140 270.7C140 269.8 140.4 269 140.9 269C141.4 269 143.2 267.8 144.9 266.3C152.1 259.6 153.5 258.5 154.3 258.8C154.8 258.9 154.9 258.6 154.6 258.1C154.3 257.6 154.7 256.7 155.5 256C156.3 255.3 157 254.9 157 255.1C157 255.3 160.7 252.1 165.2 247.8C173.7 239.8 186 232 183.13 235C182.83 235.9 182.4 234.5 183 234.5C183.6 234.5 183.529 233.5 183.529 234.5C182 236 177.5 255.1 177 253.3C176.5 251.5 174 251.5 174 253C174 253.6 174.5 254 175 254C175.6 254 176 254.7 176 255.6C176 256.7 175.4 257 173.9 256.5C172.4 256 171.7 256.3 171.3 257.8C171 258.9 169.8 260.1 168.6 260.4C167.4 260.7 163.8 263 160.5 265.6C157.2 268.1 152.7 271.1 150.5 272.2C148.3 273.4 146.3 274.6 146 274.9C144.2 277.2 136.9 282 135.1 282C133.9 282 133 282.5 133 283C133 283.6 131.8 284 130.4 284C128.3 284 128 283.7 128.9 282.7Z" fill="#EC6625"/>
<path d="M448.3 258.6C449.7 257.5 449.8 257.1 448.8 256.7C448.1 256.4 448.7 256.1 450.2 256.1C452.3 256 453.1 255.4 453.6 253.5C453.9 252.1 454.6 251.3 455.1 251.6C456.1 252.2 462 246.4 462 244.8C462 244.2 462.3 244 462.7 244.3C463.1 244.7 464.7 243.8 466.3 242.3C468 240.7 469 240.1 468.6 240.8C468.2 241.5 468.5 242 469.3 242C470.7 242 479 233 479 231.5C479 231.1 481.3 228.7 484 226C486.8 223.3 489 221.4 489 221.6C489 221.9 491.4 219.8 494.3 217C497.1 214.3 499.8 212 500.1 212C501.2 212 504.5 208.6 506.4 205.5C507.5 203.9 508.5 203 508.7 203.5C508.9 204.1 512 201.7 515.7 198.3C519.4 194.8 522.8 192 523.2 192C523.6 192 524 191.4 524 190.6C524 188.9 526.4 187.8 528.5 188.6C529.5 189 530 188.6 530 187.1C530 185.9 530.4 185 530.9 185C531.4 185 532.2 184.1 532.5 182.9C533 181.4 533.5 181.2 534.4 181.9C535.3 182.7 536.8 182 539.8 179.4C542.1 177.4 544 175.2 544 174.5C544 173 546.7 170 548.1 170C548.6 170 549 170.5 549 171.1C549 171.6 548.6 171.9 548.1 171.5C547.5 171.2 546.6 171.9 546 173.1C545 174.8 545.6 174.6 549.5 171.9C558.9 165.2 562.5 163 564.5 163.1C565.8 163.2 565.3 163.7 562.8 164.7C560.7 165.6 558.8 167 558.5 167.9C558.2 168.8 556.7 170.1 555 170.7C553.4 171.3 552 172.5 552 173.4C552 174.3 551.5 175 550.9 175C550.1 175 538.2 186 532.7 191.9C532.2 192.4 530.8 193.9 529.6 195.2C526.9 198 518.9 204.7 514.3 207.8C512.5 209 511 210.5 511 210.9C511 212.4 497.6 225.5 491.5 230C488.2 232.4 485.3 234.6 485 234.9C483.3 236.9 477.8 240 476 240C474.5 240 474 240.7 474 242.8C473.9 244.8 472.7 246.5 468.9 249.5C466.1 251.7 463.2 254.1 462.5 254.8C461.8 255.4 460.8 256 460.5 256C460.1 256 458.7 256.9 457.3 258C455.6 259.3 453.3 260 450.6 260C446.9 259.9 446.7 259.8 448.3 258.6Z" fill="#EC6625"/>
<path d="M38.4 425.8C36.3 421.8 36.5 376 38.6 371.8C39.4 370.3 40 368.1 40 366.9C40 365.5 43 361.8 48.4 356.4C53.1 351.8 57.2 348 57.5 348C59.1 348 84.4 325.7 94.5 315.5C100.6 309.3 107.1 303.2 109 301.8C110.9 300.4 117 294.7 122.5 289.1C128 283.6 132.9 279 133.4 279C134.2 279 141.9 273.3 143 271.9C143.3 271.6 145.3 270.4 147.5 269.2C149.7 268.1 154.2 265.1 157.5 262.6C160.8 260 164.5 257.7 165.8 257.3C167.4 256.9 167.9 256.3 167.5 255.1C167.2 254 167.5 253.3 168.5 253.2C169.3 253.1 170.7 252.9 171.5 252.8C172.8 252.7 173.3 251.9 173.2 250C173.2 249.7 173.9 248.8 174.8 248C176.2 246.7 176.3 246.8 175.7 248.5C175.2 249.6 175.4 250.7 176.2 251.2C177.2 251.8 177 252 175.8 252C173.7 252 175.6 250.8 177.5 251.5C178.4 251.8 176.1 256.1 174.8 261.1C171.1 275 170.2 299.1 172.6 315.8C173.2 319.5 173 320 171.3 320C170.2 320 168.1 321.3 166.5 323C164.9 324.6 163.4 325.8 163.2 325.5C162.5 324.8 155 328.9 155 330C155 330.5 153.3 332.6 151.3 334.6C149.2 336.7 148.2 338 149 337.6C149.8 337.2 149.6 337.5 148.5 338.2C147.4 338.9 144.1 341.9 141.2 344.8C138.2 347.6 135.5 350 135.1 350C134.8 350 132.9 351.6 130.9 353.5C128.9 355.4 127 356.7 126.7 356.4C126.2 355.9 120.3 361.7 107.7 374.8C106.5 376.1 103.7 378.1 101.5 379.2C97.6 381.2 85.7 392.7 81.1 398.9C79.8 400.7 74.7 405.4 69.6 409.4C64.6 413.4 59.4 418 58 419.5C52.8 425.1 48.1 428.1 44 428.4C40.4 428.7 39.7 428.4 38.4 425.8Z" fill="#EC6625"/>
<path d="M437 332.3C437 331.8 437.7 327.7 438.6 323C440.8 310.8 441 309.4 441.5 300.5C441.8 293.7 440.8 277 439.5 269.2C439.2 267.6 440.4 265.8 443.6 262.7C446.1 260.4 449.4 257.9 450.8 257.1C452.3 256.4 454.5 254.8 455.8 253.7C457 252.6 458 252.1 458 252.6C458 253.1 458.4 253 458.8 252.4C459.2 251.9 460.6 250.6 462 249.7C463.4 248.7 467.9 244.7 472.1 240.7C476.3 236.8 480.4 233 481.1 232.5C481.9 231.9 485.2 229.4 488.5 227C494.7 222.5 508 209.4 508 207.9C508 207.5 509.5 206 511.3 204.8C516.7 201.1 523.6 195.1 533.4 185.7C538.4 180.8 545.1 175 548.4 172.7C561.4 163.5 562.3 163 566.5 163.2C570.4 163.5 570.5 163.7 571.5 168C572.8 173.6 573.4 204.1 572.4 214C571.7 221.6 569.3 225.7 566.5 224.6C565.7 224.3 564.4 225 563.7 226C562.9 227.1 561.9 227.7 561.4 227.2C561 226.8 561.1 227.2 561.8 228.1C562.8 229.4 562.4 230.2 559.8 232.6C558.1 234.2 557.1 234.8 557.5 234C558.1 233 557.6 233.2 556.2 234.4C555 235.4 554.3 236.7 554.7 237.3C555 237.8 554.9 238 554.3 237.7C553.7 237.3 551.3 238.8 548.9 241C546.5 243.1 544.3 244.7 543.9 244.4C542.8 243.8 524.6 259.1 520.7 263.8C519 265.9 515.3 269.1 512.7 270.9C509.8 272.8 507.4 275.3 506.8 277.1C506.3 278.7 505.2 280 504.4 280C503.6 280 503 280.5 503 281.1C503 281.6 502.6 281.9 502.1 281.6C501.7 281.3 500.5 281.9 499.5 283C498.5 284.1 498.1 285 498.5 285C499.9 285 490 292.4 488.3 292.6C486.2 292.9 479.9 299.1 480.6 300.2C480.9 300.7 480.7 300.9 480.2 300.8C478.3 300.2 469.7 307.6 465.1 313.7C460.5 319.8 455.8 323.9 451.3 325.9C450.1 326.5 448.8 327.5 448.3 328.3C447.9 329.1 445.3 330.5 442.7 331.4C437.2 333.2 437 333.3 437 332.3Z" fill="#EC6625"/>
</g>
<defs>
<clipPath id="clip0_820_1072">
<rect width="614" height="614" fill="white"/>
</clipPath>
</defs>
</svg>
